<svg xml:space="preserve" style="enable-background:new 0 0 969.4487915 255.118103;" viewBox="0 0 969.4487915 255.118103" y="0px" x="0px" xmlns:xlink="http://www.w3.org/1999/xlink" xmlns="http://www.w3.org/2000/svg" id="Artwork" version="1.1">
<style type="text/css">
	.st0{fill:#06038D;}
</style>
<path d="M108.9572144,135.223587l43.3699951-41.241066c0.6742554-0.6411514,1.7498779,0.0767593,1.4164429,0.9453812
	l-44.9192657,117.0184937c-0.2866592,0.7467651-1.3431854,0.7467651-1.6298447,0L42.5775604,43.6134529
	c-0.2194443-0.5716705,0.2025833-1.1857224,0.8149223-1.1857224h129.2339478c0.6123505,0,1.0343781,0.6140518,0.8149261,1.1857224
	l-13.6263428,35.4979668c-0.1295166,0.3373871-0.453537,0.5600815-0.8149261,0.5600815H87.6091309
	c-0.6123352,0-1.0343628,0.6140518-0.8149185,1.1857224l20.7465591,54.0466156
	C107.763855,135.4849854,108.5061188,135.6525421,108.9572144,135.223587z M785.9684448,84.9557419l-11.3847656,21.2616501h37.34198
	l-34.1755981,63.768219h42.5089111l34.1827393-63.768219h35.085083l37.1098022-21.2616501H785.9684448z M483.3269653,84.9557419
	l-45.5794678,85.0298691h-38.5241394l45.584259-85.0298691H483.3269653z M635.3010254,84.9557419l-45.5913696,85.0298691
	h-45.4454956l10.7624512-20.0698395h-46.0628967l23.2696228-13.4978943h30.0759888l16.7838745-31.3875427h-44.0957031
	c-0.9812012,0.0383453-8.7089844,0.505043-11.9303589,6.311058v-0.0024033l-20.1750793,37.641037
	c-6.1674194,11.6096954-20.5724182,21.0055847-32.1724854,21.0055847h-21.6134338l34.1947632-63.768219
	c6.2870483-11.746048,20.9050293-21.2616501,32.6463623-21.2616501H635.3010254z M759.0061035,84.9557419
	c11.7388916,0,16.1831665,9.5156021,9.9104004,21.2616501l-33.9984741,63.768219h-42.5113525l30.4493408-57.1101608h-0.0048218
	c4.2719727-7.8618393-5.56427-7.8451157-5.56427-7.8451157H678.760376l-34.6375122,64.9552765h-42.5137329l45.3377075-85.0298691
	H759.0061035 M415.3172607,117.6655273l-16.6689758,31.3204956c-6.1674194,11.6001282-20.5747986,21.0007629-32.1748962,21.0007629
	H256.9606323l34.2857056-63.7777176c6.303833-11.7413025,20.9385681-21.2616501,32.6798401-21.2616501h110.9750671
	l-34.9438782,20.0745926h-60.2213745c0,0-5.2172852-0.0143204-7.9479675,4.8607025l-21.5105591,40.0318985h44.6461182
	l7.3113708-13.4954987h-28.5443115l32.3328247-18.7535858h48.8989258H415.3172607z" class="st0"></path>
</svg>
