<svg xmlns="http://www.w3.org/2000/svg" width="976.236" height="124" viewBox="0 0 976.236 124" fill="none">
  <path d="M 230.299 47.718 L 159.009 47.718 L 111.866 75.042 L 153.472 75.042 L 142.821 94.71 L 77.734 94.71 L 109.082 36.341 C 113.077 29.23 120.672 29.26 120.672 29.26 L 208.452 29.26 L 259.377 0 L 97.615 0 C 80.488 0 59.156 13.889 49.987 30.985 L 0 123.97 L 159.645 123.97 C 176.56 123.97 197.559 110.263 206.546 93.348 L 230.843 47.688 L 230.269 47.688 L 230.299 47.718 Z" fill="currentColor" fill-rule="nonzero"></path>
  <path d="M 207.393 124 L 273.841 0.03 L 330.001 0.03 L 263.553 124 L 207.393 124 Z" fill="currentColor" fill-rule="nonzero"></path>
  <path d="M 771.173 0.03 L 976.236 0.03 L 922.134 31.045 L 870.997 31.045 L 821.161 124 L 759.191 124 L 809.027 31.045 L 754.591 31.045 L 771.173 0.03 Z" fill="currentColor" fill-rule="nonzero"></path>
  <path d="M 377.568 0.03 C 360.442 0.03 339.14 13.889 329.971 31.015 L 280.135 123.97 L 311.635 123.97 C 328.549 123.97 349.549 110.263 358.536 93.348 L 387.947 38.489 C 392.637 30.016 403.893 29.351 405.346 29.29 L 469.615 29.29 L 445.136 75.041 L 401.291 75.041 L 367.371 94.71 L 434.515 94.71 L 418.811 123.97 L 485.047 123.97 L 551.495 0.03 L 377.568 0.03 Z" fill="currentColor" fill-rule="nonzero"></path>
  <path d="M 568.5 0.03 L 731.837 0.03 C 748.963 0.03 755.439 13.889 746.3 31.015 L 696.737 123.97 L 634.767 123.97 L 679.156 40.728 C 685.389 29.29 671.047 29.29 671.047 29.29 L 614.887 29.29 L 564.385 123.97 L 502.415 123.97 L 568.5 0.03 Z" fill="currentColor" fill-rule="nonzero"></path>
</svg>